<svg viewBox="0 0 114 114" xmlns="http://www.w3.org/2000/svg">
    <g transform="translate(-221,-30)" fill="#b8432a">
        <path d="M277.3 32.3c-.2 0-.3 0-.5-.1.2.1.4.1.5.1zM262 86.4a15.4 15.4 0 0 1 30.8 0 15.4 15.4 0 0 1-30.8 0zm.7 0c0 8.1 6.6 14.7 14.7 14.7s14.7-6.6 14.7-14.7-6.6-14.7-14.7-14.7c-8.2 0-14.7 6.6-14.7 14.7z"/>
        <path d="M279.8 86.4c0 1.3-1.1 2.4-2.4 2.4-1.3 0-2.4-1.1-2.4-2.4 0-1.3 1.1-2.4 2.4-2.4 1.3 0 2.4 1.1 2.4 2.4z"/>
        <path d="M249.6 86.4c0 7.9 3.3 14.9 8.5 20l5.2-5.7.1.1c-3.8-3.6-6.1-8.7-6.1-14.4 0-11.1 9-20.1 20.1-20.1 3.7 0 7.1 1 10 2.7l3.7-6.8c-4.1-2.3-8.7-3.6-13.7-3.6-15.3 0-27.8 12.5-27.8 27.8zM297.4 86.4c0 11.1-9 20.1-20 20.1-3.4 0-6.5-.8-9.3-2.3l-3.8 6.7c3.9 2.1 8.4 3.3 13.1 3.3 15.3 0 27.8-12.5 27.8-27.8 0-7.6-3.1-14.5-8-19.5l-5.3 5.7c3.4 3.6 5.5 8.4 5.5 13.8z"/>
        <path d="M240.8 86.4c0 10.4 4.4 19.8 11.4 26.5l5.3-5.7c-5.5-5.2-8.9-12.6-8.9-20.7a28.8 28.8 0 0 1 28.8-28.8c5.2 0 10 1.4 14.2 3.8l3.8-6.8c-5.3-3-11.4-4.7-18-4.7a36.32 36.32 0 0 0-36.6 36.4zM306.1 86.4a28.8 28.8 0 0 1-42.4 25.4l-3.8 6.8a36.62 36.62 0 0 0 54-32.2c0-10.1-4.1-19.3-10.8-25.9l-5.3 5.7c5.2 5.2 8.3 12.3 8.3 20.2z"/>
        <path d="M314.9 86.4a37.68 37.68 0 0 1-55.5 33.1l-3.9 6.9c6.5 3.5 13.9 5.6 21.8 5.6 25.1 0 45.4-20.4 45.4-45.4 0-12.7-5.2-24.2-13.6-32.4l-5.3 5.8c6.9 6.5 11.1 16 11.1 26.4zM231.9 86.4c0 13 5.5 24.7 14.2 33l5.3-5.8a37.35 37.35 0 0 1-11.7-27.2c0-20.7 16.9-37.6 37.6-37.6 6.7 0 13 1.8 18.4 4.9l3.8-6.9c-6.6-3.7-14.2-5.8-22.2-5.8-25-.1-45.4 20.3-45.4 45.4z"/>
        <path d="M315.1 47.6l-5.2 5.6c8.6 8.4 14 20.2 14 33.1 0 25.6-20.8 46.4-46.4 46.4-8.1 0-15.6-2.1-22.2-5.7l-3.9 6.9c7.7 4.2 16.6 6.7 26 6.7 29.9 0 54.2-24.3 54.2-54.2-.1-15.2-6.4-28.9-16.5-38.8zM230.9 86.4c0-25.6 20.8-46.4 46.4-46.4 8.2 0 16 2.2 22.7 6l3.7-6.7c-7.6-4.3-16.3-6.8-25.6-6.9h-.9c-29.8 0-53.9 24-54.2 53.7v.5c0 15.5 6.6 29.5 17.1 39.4l5.4-5.8c-9-8.6-14.6-20.5-14.6-33.8z"/>
    </g>
</svg>
